<svg version="1.1" id="Layer_1" xmlns="http://www.w3.org/2000/svg" xmlns:xlink="http://www.w3.org/1999/xlink" x="0px" y="0px"
	 width="100%" viewBox="0 0 500 500" enable-background="new 0 0 500 500" xml:space="preserve">
<path opacity="1.000000" stroke="none" 
	d="
M465.000000,501.000000 
	C310.000031,501.000000 155.500076,501.000000 1.000083,501.000000 
	C1.000055,334.333405 1.000055,167.666824 1.000028,1.000172 
	C167.666550,1.000115 334.333099,1.000115 500.999756,1.000057 
	C500.999817,167.666519 500.999817,334.333038 500.999908,500.999756 
	C489.166656,501.000000 477.333344,501.000000 465.000000,501.000000 
M303.068451,226.018326 
	C297.745697,226.008377 292.419678,226.107010 287.101501,225.945938 
	C284.123016,225.855743 282.940674,226.885971 282.973633,229.966949 
	C283.094513,241.276688 283.120697,252.589890 282.961639,263.898682 
	C282.913208,267.338837 284.376373,268.119263 287.458618,268.083160 
	C290.397217,268.048798 292.276093,267.602936 292.061615,264.020081 
	C291.839172,260.303955 292.012085,256.564178 292.012085,253.316193 
	C296.256897,251.690292 302.162140,255.640839 302.953308,248.526581 
	C304.059265,238.581863 295.369141,245.260773 292.303284,242.391556 
	C292.303284,240.354736 292.303284,238.290771 292.303284,235.823120 
	C296.391937,235.823120 300.192352,235.823120 304.771118,235.721069 
	C306.444122,232.381912 307.357941,229.104660 303.068451,226.018326 
M246.227646,226.313004 
	C245.829697,228.202087 245.129868,230.084488 245.087830,231.981476 
	C244.933105,238.961777 244.996445,245.946915 244.280380,252.768188 
	C242.367264,250.493515 240.817398,247.684937 238.451721,246.075470 
	C235.291595,243.925491 231.435562,242.824234 228.018585,241.008759 
	C227.100937,240.521194 226.064392,238.957565 226.225616,238.103790 
	C226.387787,237.244919 227.888077,236.299561 228.958694,236.041122 
	C230.173126,235.747925 231.647705,235.921417 232.859680,236.332626 
	C238.632797,238.291473 240.292694,237.581268 243.364761,230.738327 
	C240.126083,229.173416 237.003983,226.889069 233.553574,226.161285 
	C226.655609,224.706299 220.688980,227.017181 217.180710,232.284225 
	C215.685883,230.106918 214.339828,228.146301 212.138306,226.013702 
	C206.934097,225.031219 205.469864,227.401932 205.901672,232.317612 
	C206.295578,236.801926 205.985153,241.348114 205.985153,245.867035 
	C205.408051,246.056396 204.830963,246.245758 204.253860,246.435120 
	C201.071930,240.749237 197.848358,235.086136 194.722168,229.369797 
	C192.502747,225.311523 187.731873,224.614975 183.180099,227.811691 
	C182.092255,227.206177 181.019608,226.111771 179.914017,226.077408 
	C174.304199,225.903000 168.677765,225.849686 163.077530,226.143005 
	C162.009903,226.198914 161.033905,228.004547 159.290115,229.299896 
	C159.192429,230.861176 159.094727,232.422455 158.299103,233.882721 
	C155.118652,227.637680 149.763611,225.662247 143.116470,225.944687 
	C138.081070,226.158630 133.034515,226.110535 127.173988,226.011658 
	C122.108398,224.716324 120.237770,228.354050 118.201080,231.786346 
	C117.121956,233.604935 115.948296,235.367432 114.646164,237.425827 
	C112.503700,234.352615 110.333435,232.169846 109.312363,229.540741 
	C108.018707,226.209808 105.878601,225.880493 102.886139,225.940750 
	C95.574997,226.087982 88.258003,226.052902 80.945236,225.953674 
	C78.309410,225.917908 76.929916,226.638290 76.952293,229.581284 
	C77.040779,241.216690 76.886116,252.855453 77.143150,264.485840 
	C77.169655,265.685242 79.260750,267.737335 80.530655,267.849884 
	C85.148857,268.259064 89.825218,268.013702 94.479652,268.011871 
	C107.286804,268.006805 107.286804,268.006134 114.601112,257.908691 
	C116.678421,261.244110 118.699417,264.489166 120.787621,267.842072 
	C122.697639,267.842072 124.845718,267.842072 127.729225,267.977661 
	C129.159500,268.122711 129.626312,265.921570 132.192535,267.561615 
	C136.781448,270.494293 140.021454,267.740326 140.026276,262.030701 
	C140.028793,259.038849 140.023331,256.046997 140.881714,252.879623 
	C143.590393,252.593735 146.299072,252.307831 149.762863,251.986176 
	C152.839523,249.670135 155.916199,247.354080 159.006912,245.970139 
	C159.007599,251.511902 158.872055,257.059204 159.097961,262.591797 
	C159.159958,264.110016 160.303879,265.584106 161.426453,267.807678 
	C168.937500,267.575562 176.448532,267.343445 184.364868,267.851624 
	C185.526245,267.905731 186.701172,267.865692 187.846634,268.030396 
	C192.652176,268.721375 194.420227,266.766541 193.960022,261.912964 
	C193.566132,257.758667 193.878494,253.537430 193.878494,249.345810 
	C197.326569,253.296738 199.963867,257.339935 201.932541,261.686005 
	C204.194382,266.679291 207.344681,269.302612 213.747421,267.931946 
	C214.758896,266.161194 215.770386,264.390442 216.844482,262.510071 
	C216.883957,262.542725 217.391190,262.913452 217.842255,263.343140 
	C226.669464,271.752594 236.545135,270.434052 242.478790,260.138611 
	C242.840607,259.510834 244.123459,259.413879 245.030624,259.910248 
	C245.692932,262.549133 246.355240,265.188049 247.941544,267.979523 
	C254.537857,267.979523 261.134186,267.979523 267.684082,267.979523 
	C267.684082,264.769135 267.684082,262.046387 267.684082,258.910522 
	C263.289246,258.910522 259.212158,258.910522 255.226227,258.910522 
	C255.226227,256.406677 255.226227,254.333328 255.226227,252.222122 
	C262.077606,253.592682 265.364929,252.659637 265.859314,249.218414 
	C267.298187,239.202866 258.811249,244.642319 255.305496,242.566513 
	C255.305496,240.361984 255.305496,238.301102 255.305496,235.838562 
	C259.668945,235.838562 263.750458,235.838562 268.003906,235.838562 
	C268.003906,234.283401 267.855316,233.114822 268.029633,231.996582 
	C268.786469,227.142105 266.778992,225.492386 261.960876,225.906982 
	C257.008728,226.333084 252.000793,226.111069 246.227646,226.313004 
M316.030823,257.671021 
	C316.328674,250.081406 316.710419,242.493530 316.869324,234.901001 
	C316.912689,232.829727 316.263214,230.747620 315.971741,228.664871 
	C315.413910,224.679062 312.201202,225.826080 310.138947,226.190079 
	C308.914856,226.406143 307.179169,228.605240 307.150330,229.944504 
	C306.906616,241.265762 307.072754,252.595078 306.951233,263.920227 
	C306.919312,266.897339 307.861694,268.198944 310.961731,268.057465 
	C314.784729,267.882965 318.633972,267.823792 322.449738,268.065125 
	C327.354492,268.375366 331.575500,268.221710 329.963196,260.911377 
	C340.485016,270.775452 352.443787,270.375031 360.360840,263.956024 
	C367.752197,257.963226 370.295807,246.842957 366.200287,238.723297 
	C359.688843,225.813889 348.999268,223.631241 339.271210,227.352875 
	C334.960785,229.001907 331.131134,233.396378 328.437439,237.445496 
	C324.023224,244.080856 325.745087,251.532303 328.553101,259.259155 
	C323.977173,259.013184 320.042206,258.801666 316.030823,257.671021 
M414.887238,248.352173 
	C418.210693,242.762848 421.599152,237.210358 424.803955,231.553802 
	C425.463135,230.390411 425.917999,228.689255 425.555389,227.518295 
	C425.316650,226.747375 423.486908,226.252075 422.296112,226.033005 
	C418.437744,225.323227 415.357422,226.121277 413.892700,230.391281 
	C413.333038,232.022873 411.948914,233.358292 411.029572,234.882401 
	C408.251770,239.487579 405.517609,244.119095 402.021118,249.992325 
	C402.021118,243.040863 402.023224,237.612198 402.020599,232.183533 
	C402.017548,225.906555 400.838715,224.731674 394.712067,226.127258 
	C392.948608,226.528961 391.112030,228.349884 390.101929,230.004242 
	C386.545197,235.829453 383.333191,241.865143 379.990387,247.820984 
	C379.021027,242.074951 378.936890,236.660217 379.049744,231.249588 
	C379.128937,227.454102 377.442108,226.037033 373.682831,225.891602 
	C369.714203,225.738083 368.984222,227.520203 369.040863,230.991455 
	C369.209167,241.307449 369.025757,251.628983 369.161346,261.945953 
	C369.190002,264.127411 367.699890,267.609833 371.627411,267.870911 
	C375.124573,268.103363 378.946899,269.325775 381.332977,264.456604 
	C384.120483,258.768188 388.013855,253.621704 392.157074,247.089844 
	C392.157074,253.010849 391.915863,257.609955 392.269348,262.162842 
	C392.422424,264.134369 393.747498,267.612396 394.633972,267.642456 
	C397.828735,267.750824 402.410797,267.793762 404.020355,265.842133 
	C408.188843,260.787750 411.054169,254.658630 414.887238,248.352173 
z"/>
<path fill="#EDC1EF" opacity="1.000000" stroke="none" 
	d="
M316.069031,258.130585 
	C320.042206,258.801666 323.977173,259.013184 328.553101,259.259155 
	C325.745087,251.532303 324.023224,244.080856 328.437439,237.445496 
	C331.131134,233.396378 334.960785,229.001907 339.271210,227.352875 
	C348.999268,223.631241 359.688843,225.813889 366.200287,238.723297 
	C370.295807,246.842957 367.752197,257.963226 360.360840,263.956024 
	C352.443787,270.375031 340.485016,270.775452 329.963196,260.911377 
	C331.575500,268.221710 327.354492,268.375366 322.449738,268.065125 
	C318.633972,267.823792 314.784729,267.882965 310.961731,268.057465 
	C307.861694,268.198944 306.919312,266.897339 306.951233,263.920227 
	C307.072754,252.595078 306.906616,241.265762 307.150330,229.944504 
	C307.179169,228.605240 308.914856,226.406143 310.138947,226.190079 
	C312.201202,225.826080 315.413910,224.679062 315.971741,228.664871 
	C316.263214,230.747620 316.912689,232.829727 316.869324,234.901001 
	C316.710419,242.493530 316.328674,250.081406 316.069031,258.130585 
M337.252625,241.168167 
	C334.570160,247.611771 335.923126,253.696274 340.861328,257.397308 
	C344.005249,259.753571 350.001587,259.667938 353.227783,257.220673 
	C357.346130,254.096634 360.434875,247.537979 358.783691,244.410919 
	C354.605042,236.497360 344.979065,231.832397 337.252625,241.168167 
z"/>
<path fill="#EBBFEC" opacity="1.000000" stroke="none" 
	d="
M414.663483,248.655365 
	C411.054169,254.658630 408.188843,260.787750 404.020355,265.842133 
	C402.410797,267.793762 397.828735,267.750824 394.633972,267.642456 
	C393.747498,267.612396 392.422424,264.134369 392.269348,262.162842 
	C391.915863,257.609955 392.157074,253.010849 392.157074,247.089844 
	C388.013855,253.621704 384.120483,258.768188 381.332977,264.456604 
	C378.946899,269.325775 375.124573,268.103363 371.627411,267.870911 
	C367.699890,267.609833 369.190002,264.127411 369.161346,261.945953 
	C369.025757,251.628983 369.209167,241.307449 369.040863,230.991455 
	C368.984222,227.520203 369.714203,225.738083 373.682831,225.891602 
	C377.442108,226.037033 379.128937,227.454102 379.049744,231.249588 
	C378.936890,236.660217 379.021027,242.074951 379.990387,247.820984 
	C383.333191,241.865143 386.545197,235.829453 390.101929,230.004242 
	C391.112030,228.349884 392.948608,226.528961 394.712067,226.127258 
	C400.838715,224.731674 402.017548,225.906555 402.020599,232.183533 
	C402.023224,237.612198 402.021118,243.040863 402.021118,249.992325 
	C405.517609,244.119095 408.251770,239.487579 411.029572,234.882401 
	C411.948914,233.358292 413.333038,232.022873 413.892700,230.391281 
	C415.357422,226.121277 418.437744,225.323227 422.296112,226.033005 
	C423.486908,226.252075 425.316650,226.747375 425.555389,227.518295 
	C425.917999,228.689255 425.463135,230.390411 424.803955,231.553802 
	C421.599152,237.210358 418.210693,242.762848 414.663483,248.655365 
z"/>
<path fill="#EFC2F1" opacity="1.000000" stroke="none" 
	d="
M126.993797,267.842072 
	C124.845718,267.842072 122.697639,267.842072 120.787621,267.842072 
	C118.699417,264.489166 116.678421,261.244110 114.601112,257.908691 
	C107.286804,268.006134 107.286804,268.006805 94.479652,268.011871 
	C89.825218,268.013702 85.148857,268.259064 80.530655,267.849884 
	C79.260750,267.737335 77.169655,265.685242 77.143150,264.485840 
	C76.886116,252.855453 77.040779,241.216690 76.952293,229.581284 
	C76.929916,226.638290 78.309410,225.917908 80.945236,225.953674 
	C88.258003,226.052902 95.574997,226.087982 102.886139,225.940750 
	C105.878601,225.880493 108.018707,226.209808 109.312363,229.540741 
	C110.333435,232.169846 112.503700,234.352615 114.646164,237.425827 
	C115.948296,235.367432 117.121956,233.604935 118.201080,231.786346 
	C120.237770,228.354050 122.108398,224.716324 127.583664,226.489304 
	C128.355408,228.654449 128.717468,230.341934 129.018555,232.278992 
	C128.676468,232.700592 128.395355,232.872650 127.754570,233.079224 
	C125.272926,237.078827 123.150970,241.043884 121.004578,245.319885 
	C120.692360,246.101578 120.404564,246.572342 119.790833,247.088638 
	C119.792465,249.070053 119.798309,251.134125 120.508881,252.917404 
	C122.515762,257.953949 124.811745,262.875305 126.993797,267.842072 
M106.105812,252.479538 
	C108.568901,249.575150 108.515289,246.746750 106.316040,243.600281 
	C104.137917,240.484009 102.351738,237.093796 100.378700,233.798782 
	C95.973854,238.196884 90.605080,234.522980 86.292816,236.526398 
	C86.292816,238.623260 86.292816,240.687820 86.292816,242.988464 
	C88.211349,242.988464 89.851677,242.988464 91.492004,242.988464 
	C93.258850,242.988464 95.025688,242.988464 96.714081,242.988464 
	C97.660782,252.576157 96.468330,253.775894 86.215714,252.394455 
	C86.215714,254.500732 86.215714,256.601501 86.215714,258.682831 
	C91.305023,259.088867 96.198456,259.479279 101.456879,259.898834 
	C102.698502,258.074707 104.344254,255.656891 106.105812,252.479538 
z"/>
<path fill="#EEC1F0" opacity="1.000000" stroke="none" 
	d="
M183.963531,227.899231 
	C187.731873,224.614975 192.502747,225.311523 194.722168,229.369797 
	C197.848358,235.086136 201.071930,240.749237 204.253860,246.435120 
	C204.830963,246.245758 205.408051,246.056396 205.985153,245.867035 
	C205.985153,241.348114 206.295578,236.801926 205.901672,232.317612 
	C205.469864,227.401932 206.934097,225.031219 212.565399,226.556534 
	C212.992981,240.671173 212.993454,254.242981 212.993927,267.814789 
	C207.344681,269.302612 204.194382,266.679291 201.932541,261.686005 
	C199.963867,257.339935 197.326569,253.296738 193.878494,249.345810 
	C193.878494,253.537430 193.566132,257.758667 193.960022,261.912964 
	C194.420227,266.766541 192.652176,268.721375 187.846634,268.030396 
	C186.701172,267.865692 185.526245,267.905731 184.172791,267.064392 
	C183.643112,264.155487 183.305511,262.033844 182.975830,259.449158 
	C182.976562,251.357529 182.969376,243.728912 183.124573,235.725037 
	C183.512497,232.866272 183.738022,230.382751 183.963531,227.899231 
z"/>
<path fill="#E7BDE9" opacity="1.000000" stroke="none" 
	d="
M213.370667,267.873352 
	C212.993454,254.242981 212.992981,240.671173 212.993134,226.642517 
	C214.339828,228.146301 215.685883,230.106918 217.180710,232.284225 
	C220.688980,227.017181 226.655609,224.706299 233.553574,226.161285 
	C237.003983,226.889069 240.126083,229.173416 243.364761,230.738327 
	C240.292694,237.581268 238.632797,238.291473 232.859680,236.332626 
	C231.647705,235.921417 230.173126,235.747925 228.958694,236.041122 
	C227.888077,236.299561 226.387787,237.244919 226.225616,238.103790 
	C226.064392,238.957565 227.100937,240.521194 228.018585,241.008759 
	C231.435562,242.824234 235.291595,243.925491 238.451721,246.075470 
	C240.817398,247.684937 242.367264,250.493515 244.631683,253.287659 
	C244.981247,255.561417 244.979507,257.315704 244.977783,259.069977 
	C244.123459,259.413879 242.840607,259.510834 242.478790,260.138611 
	C236.545135,270.434052 226.669464,271.752594 217.842255,263.343140 
	C217.391190,262.913452 216.883957,262.542725 216.844482,262.510071 
	C215.770386,264.390442 214.758896,266.161194 213.370667,267.873352 
M215.901184,247.081421 
	C215.901184,250.346802 215.901184,253.612183 215.901184,257.418976 
	C220.438278,256.174530 224.195007,254.763367 227.962128,258.682617 
	C229.439026,260.219177 233.741699,259.662598 235.134827,255.661392 
	C234.549622,255.138718 234.050125,254.371262 233.365829,254.131744 
	C227.355637,252.028076 221.102341,250.390198 217.121155,244.754700 
	C216.993393,244.573822 216.088715,244.630997 216.039764,244.761871 
	C215.873978,245.204956 215.930496,245.731232 215.901184,247.081421 
z"/>
<path fill="#E7BDE9" opacity="1.000000" stroke="none" 
	d="
M129.079529,232.029434 
	C128.717468,230.341934 128.355408,228.654449 127.993141,226.572998 
	C133.034515,226.110535 138.081070,226.158630 143.116470,225.944687 
	C149.763611,225.662247 155.118652,227.637680 158.616058,234.392883 
	C158.952972,238.281372 158.972916,241.659698 158.992859,245.038040 
	C155.916199,247.354080 152.839523,249.670135 149.193024,251.668427 
	C143.778229,248.889969 141.299011,249.381241 140.021484,253.055161 
	C140.023331,256.046997 140.028793,259.038849 140.026276,262.030701 
	C140.021454,267.740326 136.781448,270.494293 132.192535,267.561615 
	C129.626312,265.921570 129.159500,268.122711 127.361511,267.909851 
	C124.811745,262.875305 122.515762,257.953949 120.508881,252.917404 
	C119.798309,251.134125 119.792465,249.070053 119.736801,247.448792 
	C123.198608,253.130051 126.388481,258.496674 130.272522,265.031128 
	C130.272522,253.799042 130.298981,244.047470 130.220978,234.296738 
	C130.214905,233.537979 129.477188,232.785065 129.079529,232.029434 
M148.991791,240.380219 
	C148.550629,233.854095 143.730194,236.758774 140.225784,235.977829 
	C140.225784,238.459915 140.225784,240.518265 140.225784,243.706512 
	C143.410721,242.809097 146.176315,242.029831 148.991791,240.380219 
z"/>
<path fill="#EDC1EF" opacity="1.000000" stroke="none" 
	d="
M183.571823,227.855469 
	C183.738022,230.382751 183.512497,232.866272 182.666595,235.651245 
	C178.106277,235.952682 174.166336,235.952682 170.299454,235.952682 
	C170.299454,238.627426 170.299454,240.696152 170.299454,243.185989 
	C173.380539,243.185989 176.182068,243.185989 178.981873,243.616272 
	C179.729980,248.644241 177.991043,250.645782 173.173233,250.068497 
	C171.476990,249.865265 168.159515,249.050644 170.024597,253.514389 
	C170.018188,255.555313 170.018188,257.149445 170.018188,258.601715 
	C174.612488,259.066650 178.790207,259.489441 182.967911,259.912231 
	C183.305511,262.033844 183.643112,264.155487 183.970154,266.694214 
	C176.448532,267.343445 168.937500,267.575562 161.231766,266.970886 
	C161.052246,255.307495 161.110046,244.480560 161.034851,233.654556 
	C161.024048,232.101715 160.371292,230.553345 160.015625,229.002899 
	C161.033905,228.004547 162.009903,226.198914 163.077530,226.143005 
	C168.677765,225.849686 174.304199,225.903000 179.914017,226.077408 
	C181.019608,226.111771 182.092255,227.206177 183.571823,227.855469 
z"/>
<path fill="#EFC2F1" opacity="1.000000" stroke="none" 
	d="
M247.017273,226.172684 
	C252.000793,226.111069 257.008728,226.333084 261.960876,225.906982 
	C266.778992,225.492386 268.786469,227.142105 268.029633,231.996582 
	C267.855316,233.114822 268.003906,234.283401 268.003906,235.838562 
	C263.750458,235.838562 259.668945,235.838562 255.305496,235.838562 
	C255.305496,238.301102 255.305496,240.361984 255.305496,242.566513 
	C258.811249,244.642319 267.298187,239.202866 265.859314,249.218414 
	C265.364929,252.659637 262.077606,253.592682 255.226227,252.222122 
	C255.226227,254.333328 255.226227,256.406677 255.226227,258.910522 
	C259.212158,258.910522 263.289246,258.910522 267.684082,258.910522 
	C267.684082,262.046387 267.684082,264.769135 267.684082,267.979523 
	C261.134186,267.979523 254.537857,267.979523 247.477142,267.445618 
	C247.014236,253.332016 247.015747,239.752350 247.017273,226.172684 
z"/>
<path fill="#EFC2F1" opacity="1.000000" stroke="none" 
	d="
M303.992737,235.823120 
	C300.192352,235.823120 296.391937,235.823120 292.303284,235.823120 
	C292.303284,238.290771 292.303284,240.354736 292.303284,242.391556 
	C295.369141,245.260773 304.059265,238.581863 302.953308,248.526581 
	C302.162140,255.640839 296.256897,251.690292 292.012085,253.316193 
	C292.012085,256.564178 291.839172,260.303955 292.061615,264.020081 
	C292.276093,267.602936 290.397217,268.048798 287.458618,268.083160 
	C284.376373,268.119263 282.913208,267.338837 282.961639,263.898682 
	C283.120697,252.589890 283.094513,241.276688 282.973633,229.966949 
	C282.940674,226.885971 284.123016,225.855743 287.101501,225.945938 
	C292.419678,226.107010 297.745697,226.008377 303.531036,226.535278 
	C303.993347,229.975861 303.993042,232.899490 303.992737,235.823120 
z"/>
<path fill="#DCB4DE" opacity="1.000000" stroke="none" 
	d="
M246.622467,226.242844 
	C247.015747,239.752350 247.014236,253.332016 247.015137,267.369324 
	C246.355240,265.188049 245.692932,262.549133 245.004196,259.490112 
	C244.979507,257.315704 244.981247,255.561417 244.980377,253.368683 
	C244.996445,245.946915 244.933105,238.961777 245.087830,231.981476 
	C245.129868,230.084488 245.829697,228.202087 246.622467,226.242844 
z"/>
<path fill="#B294B4" opacity="1.000000" stroke="none" 
	d="
M159.652863,229.151398 
	C160.371292,230.553345 161.024048,232.101715 161.034851,233.654556 
	C161.110046,244.480560 161.052246,255.307495 160.994202,266.606262 
	C160.303879,265.584106 159.159958,264.110016 159.097961,262.591797 
	C158.872055,257.059204 159.007599,251.511902 158.999878,245.504089 
	C158.972916,241.659698 158.952972,238.281372 158.965027,234.443390 
	C159.094727,232.422455 159.192429,230.861176 159.652863,229.151398 
z"/>
<path fill="#DCB4DE" opacity="1.000000" stroke="none" 
	d="
M140.451599,252.967392 
	C141.299011,249.381241 143.778229,248.889969 148.815460,251.686310 
	C146.299072,252.307831 143.590393,252.593735 140.451599,252.967392 
z"/>
<path fill="#E7BDE9" opacity="1.000000" stroke="none" 
	d="
M304.381927,235.772095 
	C303.993042,232.899490 303.993347,229.975861 303.993103,226.614349 
	C307.357941,229.104660 306.444122,232.381912 304.381927,235.772095 
z"/>
<path fill="#000000" opacity="1.000000" stroke="none" 
	d="
M337.545288,240.896942 
	C344.979065,231.832397 354.605042,236.497360 358.783691,244.410919 
	C360.434875,247.537979 357.346130,254.096634 353.227783,257.220673 
	C350.001587,259.667938 344.005249,259.753571 340.861328,257.397308 
	C335.923126,253.696274 334.570160,247.611771 337.545288,240.896942 
z"/>
<path fill="#000000" opacity="1.000000" stroke="none" 
	d="
M106.047905,252.859299 
	C104.344254,255.656891 102.698502,258.074707 101.456879,259.898834 
	C96.198456,259.479279 91.305023,259.088867 86.215714,258.682831 
	C86.215714,256.601501 86.215714,254.500732 86.215714,252.394455 
	C96.468330,253.775894 97.660782,252.576157 96.714081,242.988464 
	C95.025688,242.988464 93.258850,242.988464 91.492004,242.988464 
	C89.851677,242.988464 88.211349,242.988464 86.292816,242.988464 
	C86.292816,240.687820 86.292816,238.623260 86.292816,236.526398 
	C90.605080,234.522980 95.973854,238.196884 100.378700,233.798782 
	C102.351738,237.093796 104.137917,240.484009 106.316040,243.600281 
	C108.515289,246.746750 108.568901,249.575150 106.047905,252.859299 
z"/>
<path fill="#000000" opacity="1.000000" stroke="none" 
	d="
M129.018555,232.278992 
	C129.477188,232.785065 130.214905,233.537979 130.220978,234.296738 
	C130.298981,244.047470 130.272522,253.799042 130.272522,265.031128 
	C126.388481,258.496674 123.198608,253.130051 120.062752,247.403259 
	C120.404564,246.572342 120.692360,246.101578 121.324760,245.181168 
	C123.817665,240.835907 125.965965,236.940308 128.114258,233.044693 
	C128.395355,232.872650 128.676468,232.700592 129.018555,232.278992 
z"/>
<path fill="#E7BDE9" opacity="1.000000" stroke="none" 
	d="
M127.754570,233.079224 
	C125.965965,236.940308 123.817665,240.835907 121.349197,244.870239 
	C123.150970,241.043884 125.272926,237.078827 127.754570,233.079224 
z"/>
<path fill="#000000" opacity="1.000000" stroke="none" 
	d="
M182.975830,259.449188 
	C178.790207,259.489441 174.612488,259.066650 170.018188,258.601715 
	C170.018188,257.149445 170.018188,255.555313 170.452545,253.438293 
	C172.188019,252.907745 173.638336,253.266083 174.756699,252.810165 
	C176.625183,252.048431 178.633865,251.083862 179.945053,249.629196 
	C181.941559,247.414200 181.304962,245.042389 178.983597,243.185989 
	C176.182068,243.185989 173.380539,243.185989 170.299454,243.185989 
	C170.299454,240.696152 170.299454,238.627426 170.299454,235.952682 
	C174.166336,235.952682 178.106277,235.952682 182.504181,236.026489 
	C182.969376,243.728912 182.976562,251.357529 182.975830,259.449188 
z"/>
<path fill="#000000" opacity="1.000000" stroke="none" 
	d="
M215.901611,246.653564 
	C215.930496,245.731232 215.873978,245.204956 216.039764,244.761871 
	C216.088715,244.630997 216.993393,244.573822 217.121155,244.754700 
	C221.102341,250.390198 227.355637,252.028076 233.365829,254.131744 
	C234.050125,254.371262 234.549622,255.138718 235.134827,255.661392 
	C233.741699,259.662598 229.439026,260.219177 227.962128,258.682617 
	C224.195007,254.763367 220.438278,256.174530 215.901184,257.418976 
	C215.901184,253.612183 215.901184,250.346802 215.901611,246.653564 
z"/>
<path fill="#000000" opacity="1.000000" stroke="none" 
	d="
M148.966858,240.815399 
	C146.176315,242.029831 143.410721,242.809097 140.225784,243.706512 
	C140.225784,240.518265 140.225784,238.459915 140.225784,235.977829 
	C143.730194,236.758774 148.550629,233.854095 148.966858,240.815399 
z"/>
<path fill="#DCB4DE" opacity="1.000000" stroke="none" 
	d="
M178.981873,243.616272 
	C181.304962,245.042389 181.941559,247.414200 179.945053,249.629196 
	C178.633865,251.083862 176.625183,252.048431 174.756699,252.810165 
	C173.638336,253.266083 172.188019,252.907745 170.458954,252.991501 
	C168.159515,249.050644 171.476990,249.865265 173.173233,250.068497 
	C177.991043,250.645782 179.729980,248.644241 178.981873,243.616272 
z"/>
</svg>